<svg width="44" height="44" viewBox="0 0 44 44" fill="none" xmlns="http://www.w3.org/2000/svg">
  <rect width="44" height="44" rx="22" fill="#FAFAFA"/>
  <path d="M15.1001 35.901C13.4349 35.8252 12.5303 35.5481 11.9287 35.3135C11.1315 35.0031 10.5631 34.6336 9.96475 34.0361C9.36642 33.4386 8.99611 32.8702 8.68737 32.073C8.4527 31.4713 8.17559 30.5668 8.09986 28.9016C8.01664 27.1016 8 26.5615 8 22.0012C8 17.441 8.01831 16.9017 8.09903 15.1001C8.17476 13.4349 8.45353 12.532 8.68654 11.9287C8.99694 11.1315 9.36725 10.5631 9.96392 9.96392C10.5614 9.36642 11.1298 8.99527 11.9278 8.68654C12.5295 8.45187 13.4341 8.17476 15.0992 8.09903C16.9001 8.01664 17.441 8 21.9996 8C26.5599 8 27.0991 8.01831 28.9008 8.09903C30.5659 8.17476 31.4688 8.45353 32.0722 8.68654C32.8694 8.99527 33.4378 9.36642 34.0361 9.96392C34.6344 10.5614 35.0031 11.1306 35.3135 11.9278C35.5481 12.5295 35.8252 13.4341 35.901 15.0992C35.9834 16.9009 36 17.4401 36 22.0004C36 26.559 35.9834 27.0999 35.901 28.9016C35.8252 30.5668 35.5465 31.4713 35.3135 32.073C35.0031 32.8702 34.6336 33.4386 34.0361 34.0361C33.4386 34.6336 32.8694 35.0031 32.0722 35.3135C31.4705 35.5481 30.5659 35.8252 28.9008 35.901C27.1008 35.9834 26.5599 36 21.9996 36C17.441 36 16.9001 35.9842 15.1001 35.901Z" fill="url(#paint0_linear_1_305)"/>
  <path d="M15.1001 35.901C13.4349 35.8252 12.5303 35.5481 11.9287 35.3135C11.1315 35.0031 10.5631 34.6336 9.96475 34.0361C9.36642 33.4386 8.99611 32.8702 8.68737 32.073C8.4527 31.4713 8.17559 30.5668 8.09986 28.9016C8.01664 27.1016 8 26.5615 8 22.0012C8 17.441 8.01831 16.9017 8.09903 15.1001C8.17476 13.4349 8.45353 12.532 8.68654 11.9287C8.99694 11.1315 9.36725 10.5631 9.96392 9.96392C10.5614 9.36642 11.1298 8.99527 11.9278 8.68654C12.5295 8.45187 13.4341 8.17476 15.0992 8.09903C16.9001 8.01664 17.441 8 21.9996 8C26.5599 8 27.0991 8.01831 28.9008 8.09903C30.5659 8.17476 31.4688 8.45353 32.0722 8.68654C32.8694 8.99527 33.4378 9.36642 34.0361 9.96392C34.6344 10.5614 35.0031 11.1306 35.3135 11.9278C35.5481 12.5295 35.8252 13.4341 35.901 15.0992C35.9834 16.9009 36 17.4401 36 22.0004C36 26.559 35.9834 27.0999 35.901 28.9016C35.8252 30.5668 35.5465 31.4713 35.3135 32.073C35.0031 32.8702 34.6336 33.4386 34.0361 34.0361C33.4386 34.6336 32.8694 35.0031 32.0722 35.3135C31.4705 35.5481 30.5659 35.8252 28.9008 35.901C27.1008 35.9834 26.5599 36 21.9996 36C17.441 36 16.9001 35.9842 15.1001 35.901Z" fill="url(#paint1_radial_1_305)"/>
  <path d="M15.1001 35.901C13.4349 35.8252 12.5303 35.5481 11.9287 35.3135C11.1315 35.0031 10.5631 34.6336 9.96475 34.0361C9.36642 33.4386 8.99611 32.8702 8.68737 32.073C8.4527 31.4713 8.17559 30.5668 8.09986 28.9016C8.01664 27.1016 8 26.5615 8 22.0012C8 17.441 8.01831 16.9017 8.09903 15.1001C8.17476 13.4349 8.45353 12.532 8.68654 11.9287C8.99694 11.1315 9.36725 10.5631 9.96392 9.96392C10.5614 9.36642 11.1298 8.99527 11.9278 8.68654C12.5295 8.45187 13.4341 8.17476 15.0992 8.09903C16.9001 8.01664 17.441 8 21.9996 8C26.5599 8 27.0991 8.01831 28.9008 8.09903C30.5659 8.17476 31.4688 8.45353 32.0722 8.68654C32.8694 8.99527 33.4378 9.36642 34.0361 9.96392C34.6344 10.5614 35.0031 11.1306 35.3135 11.9278C35.5481 12.5295 35.8252 13.4341 35.901 15.0992C35.9834 16.9009 36 17.4401 36 22.0004C36 26.559 35.9834 27.0999 35.901 28.9016C35.8252 30.5668 35.5465 31.4713 35.3135 32.073C35.0031 32.8702 34.6336 33.4386 34.0361 34.0361C33.4386 34.6336 32.8694 35.0031 32.0722 35.3135C31.4705 35.5481 30.5659 35.8252 28.9008 35.901C27.1008 35.9834 26.5599 36 21.9996 36C17.441 36 16.9001 35.9842 15.1001 35.901Z" fill="url(#paint2_radial_1_305)"/>
  <path d="M15.1001 35.901C13.4349 35.8252 12.5303 35.5481 11.9287 35.3135C11.1315 35.0031 10.5631 34.6336 9.96475 34.0361C9.36642 33.4386 8.99611 32.8702 8.68737 32.073C8.4527 31.4713 8.17559 30.5668 8.09986 28.9016C8.01664 27.1016 8 26.5615 8 22.0012C8 17.441 8.01831 16.9017 8.09903 15.1001C8.17476 13.4349 8.45353 12.532 8.68654 11.9287C8.99694 11.1315 9.36725 10.5631 9.96392 9.96392C10.5614 9.36642 11.1298 8.99527 11.9278 8.68654C12.5295 8.45187 13.4341 8.17476 15.0992 8.09903C16.9001 8.01664 17.441 8 21.9996 8C26.5599 8 27.0991 8.01831 28.9008 8.09903C30.5659 8.17476 31.4688 8.45353 32.0722 8.68654C32.8694 8.99527 33.4378 9.36642 34.0361 9.96392C34.6344 10.5614 35.0031 11.1306 35.3135 11.9278C35.5481 12.5295 35.8252 13.4341 35.901 15.0992C35.9834 16.9009 36 17.4401 36 22.0004C36 26.559 35.9834 27.0999 35.901 28.9016C35.8252 30.5668 35.5465 31.4713 35.3135 32.073C35.0031 32.8702 34.6336 33.4386 34.0361 34.0361C33.4386 34.6336 32.8694 35.0031 32.0722 35.3135C31.4705 35.5481 30.5659 35.8252 28.9008 35.901C27.1008 35.9834 26.5599 36 21.9996 36C17.441 36 16.9001 35.9842 15.1001 35.901Z" fill="url(#paint3_radial_1_305)" fill-opacity="0.7"/>
  <path d="M15.1001 35.901C13.4349 35.8252 12.5303 35.5481 11.9287 35.3135C11.1315 35.0031 10.5631 34.6336 9.96475 34.0361C9.36642 33.4386 8.99611 32.8702 8.68737 32.073C8.4527 31.4713 8.17559 30.5668 8.09986 28.9016C8.01664 27.1016 8 26.5615 8 22.0012C8 17.441 8.01831 16.9017 8.09903 15.1001C8.17476 13.4349 8.45353 12.532 8.68654 11.9287C8.99694 11.1315 9.36725 10.5631 9.96392 9.96392C10.5614 9.36642 11.1298 8.99527 11.9278 8.68654C12.5295 8.45187 13.4341 8.17476 15.0992 8.09903C16.9001 8.01664 17.441 8 21.9996 8C26.5599 8 27.0991 8.01831 28.9008 8.09903C30.5659 8.17476 31.4688 8.45353 32.0722 8.68654C32.8694 8.99527 33.4378 9.36642 34.0361 9.96392C34.6344 10.5614 35.0031 11.1306 35.3135 11.9278C35.5481 12.5295 35.8252 13.4341 35.901 15.0992C35.9834 16.9009 36 17.4401 36 22.0004C36 26.559 35.9834 27.0999 35.901 28.9016C35.8252 30.5668 35.5465 31.4713 35.3135 32.073C35.0031 32.8702 34.6336 33.4386 34.0361 34.0361C33.4386 34.6336 32.8694 35.0031 32.0722 35.3135C31.4705 35.5481 30.5659 35.8252 28.9008 35.901C27.1008 35.9834 26.5599 36 21.9996 36C17.441 36 16.9001 35.9842 15.1001 35.901Z" fill="url(#paint4_radial_1_305)"/>
  <path d="M15.1001 35.901C13.4349 35.8252 12.5303 35.5481 11.9287 35.3135C11.1315 35.0031 10.5631 34.6336 9.96475 34.0361C9.36642 33.4386 8.99611 32.8702 8.68737 32.073C8.4527 31.4713 8.17559 30.5668 8.09986 28.9016C8.01664 27.1016 8 26.5615 8 22.0012C8 17.441 8.01831 16.9017 8.09903 15.1001C8.17476 13.4349 8.45353 12.532 8.68654 11.9287C8.99694 11.1315 9.36725 10.5631 9.96392 9.96392C10.5614 9.36642 11.1298 8.99527 11.9278 8.68654C12.5295 8.45187 13.4341 8.17476 15.0992 8.09903C16.9001 8.01664 17.441 8 21.9996 8C26.5599 8 27.0991 8.01831 28.9008 8.09903C30.5659 8.17476 31.4688 8.45353 32.0722 8.68654C32.8694 8.99527 33.4378 9.36642 34.0361 9.96392C34.6344 10.5614 35.0031 11.1306 35.3135 11.9278C35.5481 12.5295 35.8252 13.4341 35.901 15.0992C35.9834 16.9009 36 17.4401 36 22.0004C36 26.559 35.9834 27.0999 35.901 28.9016C35.8252 30.5668 35.5465 31.4713 35.3135 32.073C35.0031 32.8702 34.6336 33.4386 34.0361 34.0361C33.4386 34.6336 32.8694 35.0031 32.0722 35.3135C31.4705 35.5481 30.5659 35.8252 28.9008 35.901C27.1008 35.9834 26.5599 36 21.9996 36C17.441 36 16.9001 35.9842 15.1001 35.901Z" fill="url(#paint5_radial_1_305)"/>
  <path d="M18.566 21.9638C18.566 20.0869 20.0872 18.565 21.9642 18.565C23.8412 18.565 25.3631 20.0869 25.3631 21.9638C25.3631 23.8407 23.8412 25.3626 21.9642 25.3626C20.0872 25.3626 18.566 23.8407 18.566 21.9638ZM16.7286 21.9638C16.7286 24.8553 19.0726 27.1991 21.9642 27.1991C24.8558 27.1991 27.1997 24.8553 27.1997 21.9638C27.1997 19.0723 24.8558 16.7284 21.9642 16.7284C19.0726 16.7284 16.7287 19.0721 16.7287 21.9638H16.7286ZM26.1836 16.5209C26.1835 16.7628 26.2551 16.9994 26.3895 17.2007C26.5239 17.4019 26.7149 17.5588 26.9384 17.6515C27.1619 17.7442 27.4079 17.7685 27.6453 17.7214C27.8827 17.6743 28.1007 17.5579 28.2719 17.3868C28.4431 17.2158 28.5597 16.9978 28.607 16.7605C28.6543 16.5232 28.6302 16.2772 28.5377 16.0536C28.4452 15.83 28.2884 15.6388 28.0873 15.5043C27.8861 15.3698 27.6496 15.298 27.4076 15.2979H27.4071C27.0827 15.298 26.7717 15.4269 26.5423 15.6562C26.3129 15.8855 26.1838 16.1965 26.1836 16.5209ZM17.845 30.2629C16.8509 30.2176 16.3106 30.052 15.9515 29.9121C15.4755 29.7268 15.1358 29.5061 14.7787 29.1495C14.4216 28.7929 14.2006 28.4536 14.0161 27.9776C13.8761 27.6187 13.7105 27.0782 13.6653 26.0842C13.6159 25.0095 13.606 24.6867 13.606 21.9639C13.606 19.2412 13.6167 18.9193 13.6653 17.8437C13.7106 16.8496 13.8774 16.3102 14.0161 15.9503C14.2014 15.4743 14.4221 15.1346 14.7787 14.7776C15.1354 14.4205 15.4747 14.1994 15.9515 14.0149C16.3104 13.875 16.8509 13.7094 17.845 13.6642C18.9197 13.6148 19.2426 13.6049 21.9642 13.6049C24.6858 13.6049 25.009 13.6154 26.0846 13.6644C27.0787 13.7096 27.6181 13.8764 27.9781 14.0151C28.4541 14.1996 28.7938 14.4211 29.1509 14.7777C29.508 15.1343 29.7282 15.4745 29.9135 15.9505C30.0535 16.3094 30.2191 16.8498 30.2643 17.8438C30.3137 18.9194 30.3236 19.2414 30.3236 21.9641C30.3236 24.6868 30.3137 25.0088 30.2643 26.0844C30.219 27.0784 30.0526 27.6187 29.9135 27.9777C29.7282 28.4538 29.5075 28.7934 29.1509 29.1497C28.7942 29.506 28.4541 29.727 27.9781 29.9123C27.6192 30.0523 27.0787 30.2179 26.0846 30.263C25.0099 30.3125 24.687 30.3223 21.9642 30.3223C19.2414 30.3223 18.9194 30.3125 17.845 30.263V30.2629ZM17.7606 11.8299C16.6751 11.8793 15.9334 12.0514 15.2857 12.3034C14.6153 12.5637 14.047 12.9129 13.4795 13.4794C12.912 14.046 12.5637 14.6143 12.3035 15.2855C12.0514 15.9337 11.8793 16.6749 11.8299 17.7603C11.7796 18.8474 11.7681 19.195 11.7681 21.9638C11.7681 24.7326 11.7796 25.0801 11.8299 26.1672C11.8793 27.2527 12.0514 27.9939 12.3035 28.642C12.5637 29.3124 12.9121 29.8818 13.4795 30.4481C14.0469 31.0144 14.6145 31.3631 15.2857 31.6241C15.9346 31.8762 16.6751 32.0483 17.7606 32.0977C18.8483 32.1471 19.1953 32.1594 21.9642 32.1594C24.7331 32.1594 25.0807 32.1479 26.1678 32.0977C27.2533 32.0483 27.9945 31.8762 28.6427 31.6241C29.3131 31.3631 29.8814 31.0147 30.4489 30.4481C31.0163 29.8816 31.3639 29.3124 31.6249 28.642C31.877 27.9939 32.0499 27.2526 32.0985 26.1672C32.1479 25.0793 32.1594 24.7326 32.1594 21.9638C32.1594 19.195 32.1479 18.8474 32.0985 17.7603C32.0491 16.6748 31.877 15.9333 31.6249 15.2855C31.3639 14.6152 31.0154 14.0469 30.4489 13.4794C29.8823 12.912 29.3131 12.5637 28.6435 12.3034C27.9945 12.0514 27.2533 11.8785 26.1686 11.8299C25.0813 11.7802 24.7339 11.7681 21.9654 11.7681C19.1969 11.7681 18.8487 11.7796 17.761 11.8299" fill="white"/>
  <defs>
  <linearGradient id="paint0_linear_1_305" x1="22.029" y1="15.5362" x2="22" y2="36" gradientUnits="userSpaceOnUse">
  <stop stop-color="#FE02B7"/>
  <stop offset="0.256159" stop-color="#FC2278"/>
  <stop offset="0.465895" stop-color="#FF2160"/>
  <stop offset="1" stop-color="#FF5234"/>
  </linearGradient>
  <radialGradient id="paint1_radial_1_305" cx="0" cy="0" r="1" gradientUnits="userSpaceOnUse" gradientTransform="translate(12.2899 8.86957) rotate(64.7828) scale(11.0214 27.621)">
  <stop stop-color="#7837F9"/>
  <stop offset="0.277606" stop-color="#7837F9" stop-opacity="0.9"/>
  <stop offset="1" stop-color="#7837F9" stop-opacity="0"/>
  </radialGradient>
  <radialGradient id="paint2_radial_1_305" cx="0" cy="0" r="1" gradientUnits="userSpaceOnUse" gradientTransform="translate(14.7826 35.4203) rotate(79.1145) scale(12.2789 19.521)">
  <stop stop-color="#FFD702"/>
  <stop offset="1" stop-color="#FFD702" stop-opacity="0"/>
  </radialGradient>
  <radialGradient id="paint3_radial_1_305" cx="0" cy="0" r="1" gradientUnits="userSpaceOnUse" gradientTransform="translate(36.5797 33.1884) rotate(-159.55) scale(5.4755 7.91772)">
  <stop stop-color="#D300C5"/>
  <stop offset="1" stop-color="#D300C5" stop-opacity="0"/>
  </radialGradient>
  <radialGradient id="paint4_radial_1_305" cx="0" cy="0" r="1" gradientUnits="userSpaceOnUse" gradientTransform="translate(34.3768 10.029) rotate(165.426) scale(17.9695 10.0245)">
  <stop stop-color="#D300C5"/>
  <stop offset="1" stop-color="#D300C5" stop-opacity="0"/>
  </radialGradient>
  <radialGradient id="paint5_radial_1_305" cx="0" cy="0" r="1" gradientUnits="userSpaceOnUse" gradientTransform="translate(8 19.5362) rotate(-17.1428) scale(12.1939 6.34933)">
  <stop stop-color="#D300C5"/>
  <stop offset="1" stop-color="#D300C5" stop-opacity="0"/>
  </radialGradient>
  </defs>
  </svg>
