<svg width="45" height="45" viewBox="0 0 45 45" fill="none" xmlns="http://www.w3.org/2000/svg">
  <rect width="44" height="44" rx="22" fill="#FAFAFA"/>
  <g clip-path="url(#clip0_1_328)">
  <path d="M24.0421 20.9569C23.8762 20.7901 23.6924 20.6422 23.4938 20.516C22.9681 20.1793 22.3568 20.0004 21.7325 20.0004C20.8659 19.9988 20.0346 20.3431 19.4229 20.9569L16.4554 23.9267C15.8448 24.5385 15.5016 25.3674 15.501 26.2318C15.4999 28.0356 16.9612 29.4988 18.765 29.5C19.6302 29.503 20.4608 29.1603 21.0723 28.5482L23.5218 26.0986C23.5664 26.0545 23.5912 25.9943 23.5908 25.9316C23.5901 25.8028 23.485 25.6989 23.3562 25.6997H23.2629C22.7511 25.7015 22.2439 25.6032 21.7698 25.4104C21.6825 25.3744 21.5821 25.3947 21.5156 25.4617L19.7542 27.2254C19.2073 27.7723 18.3205 27.7723 17.7736 27.2254C17.2266 26.6785 17.2266 25.7917 17.7736 25.2448L20.7527 22.268C21.2992 21.7221 22.1845 21.7221 22.731 22.268C23.0993 22.6146 23.6738 22.6146 24.0421 22.268C24.2006 22.1094 24.2966 21.899 24.3127 21.6754C24.3298 21.4082 24.2312 21.1464 24.0421 20.9569Z" fill="black"/>
  <path d="M28.5423 16.4569C27.2667 15.1814 25.1986 15.1814 23.9231 16.4569L21.4759 18.9018C21.4087 18.9693 21.3893 19.0709 21.4269 19.1584C21.464 19.2462 21.5509 19.3026 21.6462 19.3007H21.7325C22.2436 19.2998 22.75 19.3988 23.2232 19.5923C23.3105 19.6283 23.4109 19.608 23.4775 19.541L25.2342 17.7867C25.7811 17.2397 26.6679 17.2397 27.2148 17.7867C27.7617 18.3336 27.7617 19.2204 27.2148 19.7673L25.0265 21.9532L25.0078 21.9742L24.2427 22.7348C23.6962 23.2806 22.8108 23.2806 22.2643 22.7348C21.896 22.3881 21.3215 22.3881 20.9533 22.7348C20.7938 22.8946 20.6976 23.1068 20.6826 23.332C20.6656 23.5992 20.7641 23.8609 20.9533 24.0505C21.2233 24.3217 21.5392 24.5429 21.8864 24.7037C21.9354 24.7271 21.9844 24.7457 22.0334 24.7667C22.0824 24.7877 22.1337 24.8041 22.1827 24.8227C22.2317 24.8414 22.283 24.8577 22.332 24.8717L22.4696 24.909C22.5629 24.9324 22.6563 24.951 22.7519 24.9673C22.8671 24.9845 22.9831 24.9954 23.0995 25H23.2628H23.2768L23.4168 24.9837C23.4681 24.9814 23.5218 24.9697 23.5824 24.9697H23.6617L23.8227 24.9464L23.8974 24.9324L24.0327 24.9044H24.0583C24.6314 24.7604 25.1547 24.4637 25.5724 24.0459L28.5422 21.0761C29.8178 19.8005 29.8178 17.7325 28.5423 16.4569Z" fill="black"/>
  </g>
  <defs>
  <clipPath id="clip0_1_328">
  <rect width="14" height="14" fill="white" transform="translate(15.5 15.5)"/>
  </clipPath>
  </defs>
  </svg>
