<svg width="44" height="44" viewBox="0 0 44 44" fill="none" xmlns="http://www.w3.org/2000/svg">
  <rect width="44" height="44" rx="22" fill="#FAFAFA"/>
  <path fill-rule="evenodd" clip-rule="evenodd" d="M31.5703 13.7578C32.6422 14.0703 33.4844 14.8906 33.7523 15.9844C34.25 17.9375 34.25 22 34.25 22C34.25 22 34.25 26.0625 33.7523 28.0156C33.4461 29.1094 32.6422 29.9688 31.5703 30.2422C29.6562 30.75 22 30.75 22 30.75C22 30.75 14.3438 30.75 12.4297 30.2422C11.3578 29.9297 10.5156 29.1094 10.2477 28.0156C9.75 26.0625 9.75 22 9.75 22C9.75 22 9.75 17.9375 10.2477 15.9844C10.5539 14.8906 11.3578 14.0312 12.4297 13.7578C14.3438 13.25 22 13.25 22 13.25C22 13.25 29.6562 13.25 31.5703 13.7578ZM25.9047 22.0001L19.55 18.2501V25.7501L25.9047 22.0001Z" fill="#FF3535"/>
  </svg>
